<?xml version="1.0" encoding="UTF-8"?><svg xmlns="http://www.w3.org/2000/svg" xmlns:xlink="http://www.w3.org/1999/xlink" height="713.5" preserveAspectRatio="xMidYMid meet" version="1.0" viewBox="-9.4 0.0 862.6 713.5" width="862.6" zoomAndPan="magnify"><defs><clipPath id="a"><path d="M 0 0 L 830.71875 0 L 830.71875 684.058594 L 0 684.058594 Z M 0 0"/></clipPath></defs><g><g id="change1_1"><path d="M 29.714844 415.550781 C 64.246094 358.945312 144.28125 351.023438 144.28125 351.023438 C 144.28125 351.023438 244.425781 330.507812 341.117188 417.921875 C 341.117188 417.921875 479.929688 291.234375 599.574219 423.269531 C 595.035156 417.449219 570.730469 378.175781 568.359375 200.296875 C 549.738281 109.632812 529.289062 114.84375 511.144531 136.242188 C 494.621094 155.742188 476.882812 159.535156 463.609375 162.105469 C 419.597656 170.503906 429.484375 174.363281 399.824219 185.671875 C 395.828125 194.609375 386.351562 197.316406 378.089844 197.992188 C 361.636719 199.28125 351.410156 189.058594 351.546875 178.832031 C 351.546875 178.832031 288.847656 144.230469 312.816406 106.988281 C 336.785156 69.679688 366.035156 24.449219 366.035156 24.449219 C 366.035156 24.449219 405.988281 0.816406 485.886719 8.46875 C 538.023438 21.402344 579.125 32.441406 579.125 32.441406 C 579.125 32.441406 736.082031 311.953125 794.652344 383.863281 C 853.222656 455.773438 805.351562 555.648438 805.351562 555.648438 C 805.351562 555.648438 832.503906 603.925781 792.824219 621.261719 C 767.5 632.363281 653.269531 615.707031 575.265625 640.421875 C 485.410156 668.859375 342.878906 713.484375 159.179688 624.578125 L 159.109375 624.578125 C 139.609375 623.359375 116.65625 618.6875 89.84375 608.734375 C -9.355469 571.964844 -5.835938 473.785156 29.714844 415.550781" fill="#ffa461"/></g><g id="change2_2"><path d="M 351.546875 178.832031 L 351.578125 178.832031 Z M 382.558594 166.503906 C 382.410156 166.503906 382.265625 166.503906 382.117188 166.507812 C 376.828125 166.5625 372.203125 167.273438 368.335938 168.621094 C 362.152344 170.808594 358.5625 174.5625 358.519531 178.902344 C 358.519531 178.910156 358.519531 178.917969 358.519531 178.925781 C 358.484375 181.601562 359.792969 184.382812 362.113281 186.558594 C 365.730469 189.945312 371.21875 191.546875 377.546875 191.042969 C 390.253906 190 392.667969 184.601562 393.460938 182.824219 C 393.851562 181.992188 394.113281 181.160156 394.363281 179.996094 C 394.671875 178.324219 394.96875 172.890625 392.3125 169.746094 C 390.496094 167.59375 387.214844 166.503906 382.558594 166.503906 Z M 375.320312 205.078125 C 366.351562 205.078125 358.375 202.167969 352.574219 196.734375 C 347.40625 191.886719 344.492188 185.335938 344.574219 178.753906 C 344.6875 168.371094 351.839844 159.664062 363.714844 155.464844 C 369.035156 153.605469 375.160156 152.632812 381.945312 152.5625 C 391.222656 152.46875 398.375 155.226562 403.070312 160.871094 C 410.394531 169.683594 408.28125 181.523438 408.015625 182.84375 C 407.515625 185.164062 406.921875 186.976562 406.128906 188.652344 C 403.191406 195.226562 395.980469 203.523438 378.660156 204.941406 C 377.535156 205.03125 376.421875 205.078125 375.320312 205.078125" fill="#b76627"/></g><g id="change2_3"><path d="M 382.027344 555.644531 C 389.519531 560.1875 397.070312 564.265625 404.835938 567.816406 C 412.511719 571.503906 420.40625 574.574219 428.34375 577.269531 C 444.21875 582.683594 460.566406 586.019531 477.039062 587.019531 C 493.511719 588.074219 510.101562 586.640625 526.480469 583.144531 C 542.886719 579.628906 558.988281 574.003906 575.28125 567.523438 C 562.015625 579.007812 546.320312 587.769531 529.429688 593.703125 C 512.511719 599.492188 494.238281 602.125 476.179688 600.933594 C 458.113281 599.832031 440.332031 595.125 424.210938 587.386719 C 416.121094 583.5625 408.5 578.875 401.339844 573.660156 C 394.28125 568.320312 387.523438 562.535156 382.027344 555.644531" fill="#b76627"/></g><g id="change2_4"><path d="M 426.640625 120.324219 C 424.910156 120.324219 423.183594 119.6875 421.832031 118.402344 C 420.449219 117.085938 419.597656 114.992188 419.597656 113.082031 C 419.597656 109.230469 422.71875 106.113281 426.570312 106.113281 C 429.871094 106.113281 432.640625 108.40625 433.359375 111.492188 C 433.992188 113.773438 433.441406 116.320312 431.6875 118.164062 C 430.320312 119.601562 428.480469 120.324219 426.640625 120.324219" fill="#b76627"/></g><g id="change2_5"><path d="M 382.015625 166.511719 C 379.074219 166.511719 376.335938 164.632812 375.382812 161.679688 C 374.199219 158.015625 376.210938 154.082031 379.875 152.898438 C 418.503906 140.421875 420.394531 121.765625 419.976562 116.03125 C 419.90625 115.574219 419.867188 115.136719 419.867188 114.777344 C 419.867188 110.925781 422.992188 107.804688 426.84375 107.804688 C 430.40625 107.804688 433.34375 110.476562 433.761719 113.925781 C 433.808594 114.175781 433.835938 114.421875 433.855469 114.65625 C 434.546875 122.753906 433.015625 150.386719 384.160156 166.167969 C 383.449219 166.398438 382.726562 166.511719 382.015625 166.511719" fill="#b76627"/></g><g clip-path="url(#a)" id="change2_1"><path d="M 591.117188 422.605469 C 575.417969 405.328125 557.148438 390.53125 536.65625 380.179688 C 526.28125 375.304688 515.480469 371.449219 504.324219 369.011719 C 493.128906 366.777344 481.675781 365.9375 470.238281 366.453125 C 447.308594 367.402344 424.707031 374.199219 403.71875 384.160156 C 393.210938 389.167969 383.050781 394.996094 373.339844 401.503906 C 363.730469 408.003906 354.167969 415.273438 345.984375 422.914062 C 343.324219 425.398438 339.269531 425.457031 336.546875 423.179688 L 336.441406 423.09375 L 326.386719 414.699219 L 321.359375 410.496094 L 318.847656 408.398438 L 316.1875 406.496094 L 305.515625 398.933594 C 303.71875 397.703125 302.011719 396.332031 300.136719 395.222656 L 294.527344 391.875 L 283.296875 385.203125 L 271.609375 379.390625 C 269.648438 378.453125 267.75 377.378906 265.738281 376.554688 L 259.699219 374.09375 C 255.644531 372.535156 251.722656 370.613281 247.558594 369.347656 C 231.207031 363.425781 214.136719 359.648438 196.933594 357.511719 C 188.328125 356.394531 179.65625 356.015625 171.015625 355.914062 C 166.710938 356.035156 162.371094 356.023438 158.109375 356.414062 C 155.960938 356.539062 153.832031 356.726562 151.734375 356.996094 C 149.660156 357.203125 147.441406 357.546875 145.679688 357.851562 L 145.203125 357.929688 L 144.96875 357.960938 C 110.472656 362.703125 75.019531 376.34375 50.339844 400.660156 C 47.363281 403.777344 44.558594 407.0625 41.796875 410.355469 C 39.421875 413.949219 36.777344 417.277344 34.574219 421.066406 C 30.128906 428.617188 26.367188 436.605469 23.304688 444.855469 C 17.195312 461.351562 13.839844 478.921875 13.949219 496.390625 C 14.039062 513.839844 17.757812 531.203125 25.554688 546.566406 C 33.324219 561.921875 45.007812 575.21875 59.335938 585.113281 C 66.480469 590.066406 74.082031 594.472656 82.148438 598.019531 C 90.148438 601.535156 98.648438 604.644531 107.234375 607.328125 C 115.804688 610.019531 124.476562 612.304688 133.222656 614.074219 C 137.597656 614.957031 141.988281 615.691406 146.390625 616.296875 C 148.589844 616.601562 150.792969 616.851562 152.996094 617.078125 L 159.179688 617.605469 L 159.734375 617.652344 C 160.605469 617.726562 161.460938 617.960938 162.214844 618.300781 C 189.328125 630.640625 216.773438 642.496094 245.476562 650.449219 C 259.625 655.128906 274.25 657.917969 288.71875 661.332031 C 296.015625 662.730469 303.378906 663.75 310.707031 664.980469 C 314.378906 665.519531 318.027344 666.28125 321.722656 666.636719 L 332.816406 667.703125 C 392.007812 674.160156 451.976562 667.167969 509.738281 652.34375 C 524.226562 648.710938 538.589844 644.457031 552.945312 640.09375 L 574.535156 633.367188 C 581.984375 631.03125 589.527344 629.230469 597.085938 627.589844 C 627.390625 621.382812 658 619.640625 688.34375 618.972656 C 703.523438 618.675781 718.667969 618.707031 733.730469 618.710938 C 748.734375 618.644531 763.894531 618.800781 778.167969 617.371094 C 781.644531 616.945312 785.164062 616.445312 788.03125 615.585938 L 789.949219 614.898438 L 792.109375 613.855469 C 793.570312 613.167969 794.882812 612.320312 796.171875 611.472656 C 801.308594 608.007812 804.75 603.203125 806.332031 597.402344 C 809.507812 585.738281 805.347656 570.835938 799.273438 559.066406 L 799.222656 558.972656 C 798.167969 556.925781 798.191406 554.582031 799.0625 552.632812 C 803.027344 543.886719 806.394531 534.039062 809.097656 524.402344 C 811.773438 514.671875 813.875 504.773438 815.171875 494.804688 C 817.761719 474.890625 817.410156 454.589844 812.648438 435.382812 C 810.257812 425.800781 806.777344 416.527344 802.199219 407.835938 L 798.5625 401.429688 L 794.511719 395.273438 C 793.097656 393.265625 791.554688 391.347656 790.085938 389.375 L 785.300781 383.152344 C 772.269531 366.367188 760.652344 349.011719 749.179688 331.527344 C 726.308594 296.550781 704.539062 261 683.0625 225.285156 C 661.609375 189.558594 640.554688 153.613281 619.707031 117.550781 L 588.621094 63.351562 L 584.757812 56.5625 C 583.476562 54.289062 582.421875 52.570312 581.019531 50.695312 C 578.339844 47.054688 575.105469 43.820312 571.484375 41.113281 C 567.863281 38.402344 563.835938 36.246094 559.59375 34.695312 C 555.621094 33.269531 550.082031 32.089844 545.171875 30.769531 L 514.960938 23.050781 L 499.859375 19.191406 C 494.800781 17.953125 489.710938 16.449219 485.171875 15.675781 C 482.808594 15.265625 480.535156 14.96875 478.117188 14.8125 L 470.488281 14.34375 C 465.40625 14.125 460.316406 13.910156 455.234375 13.949219 C 445.074219 13.933594 434.925781 14.4375 424.878906 15.574219 C 414.839844 16.734375 404.867188 18.433594 395.191406 21.011719 C 390.347656 22.269531 385.570312 23.738281 380.9375 25.453125 L 377.578125 26.757812 C 376.660156 27.140625 375.769531 27.578125 374.914062 28.085938 C 373.203125 29.09375 371.613281 30.3125 370.214844 31.742188 C 369.515625 32.453125 368.855469 33.210938 368.242188 34.011719 C 367.644531 34.800781 367.128906 35.605469 366.359375 36.800781 L 362.132812 43.355469 L 353.675781 56.472656 L 319.855469 108.941406 L 318.796875 110.578125 L 317.980469 111.996094 C 317.4375 112.917969 316.894531 113.839844 316.535156 114.800781 C 316.089844 115.742188 315.6875 116.695312 315.441406 117.671875 C 315.089844 118.628906 314.871094 119.609375 314.722656 120.597656 C 314.011719 124.519531 314.328125 128.59375 315.6875 132.648438 C 318.339844 140.800781 324.367188 148.519531 331.382812 155.1875 C 338.367188 161.847656 346.6875 167.9375 354.914062 172.726562 L 344.574219 178.761719 C 344.589844 173.941406 346.386719 169.140625 349.1875 165.511719 C 351.976562 161.820312 355.570312 159.238281 359.199219 157.390625 C 366.578125 153.738281 374.066406 152.769531 381.269531 152.574219 C 383.113281 152.578125 385.191406 152.683594 387.167969 152.839844 C 389.265625 153.25 391.304688 153.453125 393.457031 154.347656 C 397.671875 155.765625 402.015625 158.847656 404.585938 162.992188 C 407.207031 167.101562 408.199219 171.589844 408.441406 175.734375 C 408.523438 177.84375 408.472656 179.828125 408.152344 182.03125 C 408.132812 182.207031 408.03125 182.804688 407.96875 183.0625 L 407.789062 183.832031 L 407.375 185.375 C 407.058594 186.433594 406.648438 187.550781 406.128906 188.65625 L 397.34375 179.15625 C 401.929688 177.363281 406.429688 175.492188 410.71875 173.328125 C 415.023438 171.21875 419.128906 168.574219 424.277344 166.046875 C 429.355469 163.550781 434.675781 161.761719 439.804688 160.34375 C 444.96875 158.882812 450.066406 157.765625 455.160156 156.683594 L 462.757812 155.167969 C 465.21875 154.695312 467.597656 154.1875 469.9375 153.640625 C 474.582031 152.511719 479.003906 151.09375 483.1875 149.210938 C 491.527344 145.421875 498.894531 139.753906 505.023438 132.625 C 508.378906 128.820312 512.257812 124.386719 517.402344 120.890625 C 519.933594 119.089844 523.121094 117.578125 526.707031 116.65625 C 528.640625 116.453125 530.527344 115.957031 532.53125 116.300781 C 533.527344 116.398438 534.519531 116.527344 535.496094 116.679688 C 536.414062 116.964844 537.328125 117.289062 538.234375 117.625 C 541.84375 118.996094 544.585938 121.234375 546.863281 123.46875 C 548.15625 124.570312 548.910156 125.785156 549.925781 126.960938 L 551.34375 128.742188 L 552.507812 130.558594 C 553.265625 131.769531 554.078125 132.984375 554.78125 134.207031 L 556.695312 137.894531 C 558.058594 140.351562 558.972656 142.84375 560.085938 145.324219 C 568.199219 165.089844 572.605469 185.792969 574.773438 206.679688 C 575.308594 211.898438 575.683594 217.128906 575.910156 222.359375 L 576.640625 237.628906 L 577.371094 252.828125 L 578.519531 267.992188 C 580.011719 288.214844 582.347656 308.332031 585.046875 328.347656 C 587.707031 348.375 591.175781 368.238281 595.398438 387.863281 C 596.359375 392.808594 597.707031 397.613281 598.851562 402.5 C 600.175781 407.3125 601.414062 412.164062 602.628906 417.003906 C 605.042969 426.765625 606.71875 436.503906 608.8125 447.027344 C 607.671875 446.292969 606.554688 445.390625 605.617188 444.433594 C 604.585938 443.503906 603.675781 442.503906 602.820312 441.472656 C 600.984375 439.441406 599.457031 437.269531 597.945312 435.058594 C 595.015625 430.609375 592.535156 425.925781 590.476562 421.109375 C 586.371094 411.457031 583.667969 401.382812 580.933594 391.378906 C 575.667969 371.304688 571.886719 350.9375 569.191406 330.496094 C 566.609375 310.039062 564.746094 289.523438 563.695312 269 L 562.835938 253.613281 L 562.273438 238.226562 L 561.722656 222.902344 C 561.5625 217.9375 561.261719 212.980469 560.816406 208.039062 C 558.945312 188.34375 554.59375 168.71875 547.210938 150.683594 C 546.230469 148.511719 545.386719 146.195312 544.253906 144.1875 L 542.648438 141.078125 C 542.078125 140.097656 541.453125 139.195312 540.871094 138.242188 C 538.507812 134.582031 535.566406 131.449219 533.167969 130.617188 C 532.875 130.519531 532.59375 130.390625 532.308594 130.257812 C 532.023438 130.265625 531.746094 130.25 531.472656 130.203125 C 530.945312 129.96875 530.296875 130.359375 529.695312 130.277344 C 528.367188 130.699219 526.824219 131.265625 525.203125 132.449219 C 524.398438 133 523.578125 133.558594 522.773438 134.316406 C 521.960938 134.992188 521.148438 135.703125 520.359375 136.542969 C 519.5625 137.328125 518.761719 138.125 517.996094 139.027344 L 515.523438 141.804688 C 508.359375 150.148438 499.210938 157.277344 488.9375 161.914062 C 483.8125 164.226562 478.472656 165.917969 473.203125 167.199219 C 470.574219 167.816406 467.960938 168.371094 465.410156 168.859375 L 457.996094 170.335938 C 448.214844 172.421875 438.503906 174.628906 430.398438 178.578125 C 426.363281 180.523438 421.84375 183.386719 416.988281 185.785156 C 412.160156 188.21875 407.226562 190.269531 402.308594 192.1875 C 398.730469 193.578125 394.703125 191.808594 393.308594 188.230469 C 392.589844 186.390625 392.710938 184.433594 393.484375 182.773438 L 393.523438 182.6875 C 393.703125 182.308594 393.863281 181.886719 394.015625 181.375 L 394.238281 180.542969 L 394.339844 180.117188 C 394.367188 179.976562 394.328125 180.167969 394.363281 179.9375 C 394.519531 178.898438 394.558594 177.597656 394.511719 176.433594 C 394.375 174.0625 393.785156 171.96875 392.859375 170.539062 C 391.9375 169.105469 390.667969 168.148438 388.714844 167.460938 C 387.84375 167.015625 386.574219 166.953125 385.472656 166.683594 C 384.183594 166.617188 382.980469 166.53125 381.554688 166.515625 C 375.71875 166.621094 369.886719 167.601562 365.488281 169.839844 C 360.988281 172.078125 358.515625 175.453125 358.519531 178.902344 L 358.519531 178.984375 C 358.523438 182.785156 355.449219 185.867188 351.648438 185.871094 C 350.394531 185.871094 349.191406 185.523438 348.179688 184.9375 C 338.429688 179.257812 329.863281 172.933594 321.75 165.273438 C 313.820312 157.636719 306.320312 148.640625 302.40625 136.90625 C 300.460938 131.101562 299.832031 124.492188 300.992188 118.171875 C 301.246094 116.585938 301.605469 115.03125 302.128906 113.527344 C 302.550781 111.984375 303.144531 110.535156 303.800781 109.113281 C 304.386719 107.644531 305.148438 106.3125 305.925781 104.992188 L 307.070312 103.035156 L 308.125 101.394531 L 325.042969 75.15625 L 341.960938 48.910156 L 350.417969 35.789062 L 354.648438 29.230469 C 355.285156 28.234375 356.167969 26.847656 357.144531 25.566406 C 358.113281 24.296875 359.164062 23.089844 360.289062 21.945312 C 362.535156 19.660156 365.101562 17.675781 367.875 16.046875 C 369.261719 15.230469 370.707031 14.515625 372.1875 13.894531 L 376.101562 12.371094 C 381.230469 10.476562 386.414062 8.886719 391.640625 7.527344 C 402.078125 4.746094 412.679688 2.945312 423.304688 1.71875 C 433.9375 0.515625 444.609375 -0.0117188 455.253906 0.0078125 C 460.578125 -0.0351562 465.890625 0.1875 471.203125 0.417969 L 479.152344 0.90625 C 481.925781 1.085938 484.820312 1.453125 487.582031 1.941406 C 490.3125 2.410156 493.222656 3.082031 495.683594 3.730469 L 503.253906 5.664062 L 518.394531 9.535156 L 548.675781 17.273438 C 553.800781 18.671875 558.5 19.554688 564.351562 21.585938 C 569.878906 23.601562 575.117188 26.414062 579.828125 29.941406 C 584.539062 33.460938 588.742188 37.667969 592.230469 42.402344 C 593.960938 44.6875 595.621094 47.417969 596.886719 49.679688 L 600.742188 56.457031 L 631.78125 110.574219 C 652.597656 146.582031 673.617188 182.46875 695.019531 218.105469 C 716.4375 253.726562 738.152344 289.183594 760.839844 323.878906 C 772.191406 341.191406 783.773438 358.449219 796.273438 374.546875 L 801 380.695312 C 802.644531 382.890625 804.359375 385.035156 805.941406 387.277344 L 810.464844 394.164062 L 814.535156 401.328125 C 819.65625 411.054688 823.539062 421.410156 826.183594 432.019531 C 831.453125 453.289062 831.765625 475.332031 829 496.625 C 827.609375 507.296875 825.375 517.808594 822.53125 528.136719 C 819.59375 538.519531 816.265625 548.449219 811.636719 558.660156 L 811.425781 552.230469 C 813.539062 556.179688 815.042969 559.695312 816.480469 563.582031 C 817.871094 567.40625 819.050781 571.328125 819.910156 575.390625 C 821.589844 583.472656 822.164062 592.273438 819.78125 601.085938 C 817.503906 609.890625 811.527344 618.050781 804.089844 622.949219 C 802.25 624.183594 800.355469 625.363281 798.414062 626.292969 L 795.476562 627.699219 C 794.351562 628.125 793.195312 628.566406 792.074219 628.933594 C 787.699219 630.222656 783.714844 630.726562 779.714844 631.230469 C 763.949219 632.792969 748.878906 632.574219 733.734375 632.65625 C 718.628906 632.652344 703.605469 632.621094 688.621094 632.914062 C 658.707031 633.5625 628.796875 635.316406 599.929688 641.242188 C 592.746094 642.804688 585.609375 644.507812 578.660156 646.6875 L 557.046875 653.421875 C 542.546875 657.832031 527.96875 662.148438 513.195312 665.851562 C 454.296875 680.984375 392.429688 688.238281 331.4375 681.582031 L 320.011719 680.476562 C 316.199219 680.109375 312.445312 679.328125 308.660156 678.777344 C 301.113281 677.511719 293.523438 676.453125 286.015625 675.015625 C 271.125 671.515625 256.070312 668.617188 241.53125 663.828125 C 212.023438 655.632812 183.890625 643.5 156.140625 630.855469 L 159.175781 631.550781 C 156.210938 631.390625 154.023438 631.1875 151.609375 630.953125 C 149.238281 630.710938 146.867188 630.445312 144.511719 630.113281 C 139.800781 629.46875 135.113281 628.679688 130.46875 627.742188 C 121.179688 625.867188 112.039062 623.453125 103.054688 620.632812 C 94.085938 617.820312 85.273438 614.621094 76.433594 610.738281 C 67.652344 606.871094 59.246094 602.03125 51.292969 596.503906 C 35.339844 585.492188 21.929688 570.339844 13.105469 552.859375 C 4.230469 535.363281 0.101562 515.78125 0.00390625 496.484375 C -0.109375 477.140625 3.574219 457.988281 10.230469 440.003906 C 13.570312 431.007812 17.675781 422.285156 22.5625 413.984375 C 24.980469 409.820312 28.03125 405.875 30.765625 401.824219 C 33.882812 398.070312 37.082031 394.34375 40.449219 390.828125 C 54.3125 377.0625 70.984375 366.765625 88.464844 359.164062 C 97.265625 355.46875 106.253906 352.320312 115.40625 349.761719 C 124.652344 347.277344 133.699219 345.277344 143.59375 344.085938 L 142.882812 344.191406 C 145.527344 343.714844 147.730469 343.394531 150.105469 343.144531 C 152.441406 342.851562 154.769531 342.644531 157.085938 342.503906 C 161.730469 342.089844 166.347656 342.089844 170.976562 341.96875 C 180.210938 342.070312 189.4375 342.480469 198.570312 343.664062 C 216.832031 345.925781 234.902344 349.941406 252.203125 356.199219 C 256.601562 357.546875 260.753906 359.558594 265.039062 361.210938 L 271.421875 363.816406 C 273.542969 364.695312 275.550781 365.820312 277.621094 366.808594 L 289.953125 372.949219 L 301.789062 379.96875 L 307.695312 383.5 C 309.664062 384.675781 311.460938 386.105469 313.355469 387.398438 L 324.566406 395.347656 L 327.359375 397.347656 L 329.996094 399.546875 L 335.265625 403.945312 L 345.796875 412.75 L 336.253906 412.929688 C 345.640625 404.167969 355.304688 396.90625 365.566406 389.925781 C 375.8125 383.058594 386.546875 376.894531 397.722656 371.570312 C 420.035156 360.980469 444.390625 353.585938 469.578125 352.523438 C 482.128906 351.953125 494.789062 352.878906 507.164062 355.359375 C 519.503906 358.042969 531.429688 362.292969 542.796875 367.660156 C 565.257812 378.980469 584.863281 394.988281 601.449219 413.238281 C 604.039062 416.089844 603.828125 420.5 600.980469 423.089844 C 598.128906 425.679688 593.71875 425.46875 591.128906 422.617188 L 591.117188 422.605469" fill="#b76627"/></g><g id="change2_6"><path d="M 248.761719 596.746094 C 243.785156 603.160156 237.300781 608.363281 230.414062 612.832031 C 223.476562 617.28125 215.921875 620.800781 208.089844 623.628906 C 204.140625 624.925781 200.171875 626.253906 196.09375 627.144531 C 192.046875 628.269531 187.925781 628.875 183.789062 629.605469 C 179.652344 630.328125 175.484375 630.558594 171.296875 631.050781 C 167.117188 631.28125 162.925781 631.375 158.714844 631.535156 C 154.847656 631.683594 151.597656 628.667969 151.449219 624.804688 C 151.304688 620.9375 154.316406 617.683594 158.179688 617.539062 C 158.503906 617.527344 158.816406 617.535156 159.128906 617.566406 L 159.644531 617.621094 C 163.492188 618.019531 167.363281 618.5 171.246094 618.847656 C 175.113281 618.9375 179.03125 619.300781 182.917969 619.183594 C 186.804688 619.058594 190.738281 619.0625 194.605469 618.558594 C 198.519531 618.285156 202.359375 617.582031 206.234375 616.90625 C 213.910156 615.328125 221.511719 613.058594 228.742188 609.773438 C 235.929688 606.457031 242.933594 602.359375 248.761719 596.746094" fill="#b76627"/></g><g id="change2_7"><path d="M 345.789062 412.742188 C 359.539062 428.285156 371.53125 444.980469 382.015625 462.339844 C 367.855469 447.816406 352.628906 434.566406 336.449219 423.097656 C 333.285156 420.855469 332.539062 416.472656 334.78125 413.3125 C 337.023438 410.148438 341.40625 409.402344 344.570312 411.644531 C 345.007812 411.953125 345.402344 412.308594 345.746094 412.691406 L 345.789062 412.742188" fill="#b76627"/></g><g id="change2_8"><path d="M 374.421875 70.253906 C 370.164062 77.515625 366.191406 84.925781 362.523438 92.449219 C 358.898438 99.96875 355.492188 107.648438 353.160156 115.402344 C 352.039062 119.226562 351.144531 123.257812 351.328125 126.515625 C 351.386719 127.300781 351.523438 128.007812 351.714844 128.503906 C 351.808594 128.753906 351.921875 128.933594 352.015625 129.070312 C 352.070312 129.136719 352.113281 129.15625 352.160156 129.230469 L 352.640625 129.871094 L 356.425781 135.050781 C 361.398438 142.003906 366.136719 148.996094 370.804688 156.195312 C 372.90625 159.433594 371.984375 163.765625 368.742188 165.867188 C 365.503906 167.96875 361.175781 167.046875 359.070312 163.808594 C 358.890625 163.527344 358.730469 163.238281 358.59375 162.945312 L 358.5625 162.875 C 355.121094 155.359375 351.476562 147.785156 347.6875 140.410156 L 344.785156 134.90625 L 344.417969 134.222656 C 344.210938 133.835938 343.976562 133.410156 343.804688 133.003906 C 343.460938 132.1875 343.21875 131.371094 343.070312 130.601562 C 342.773438 129.054688 342.769531 127.648438 342.859375 126.335938 C 343.359375 121.167969 345.0625 117.070312 346.8125 113.03125 C 350.441406 105.066406 354.917969 97.84375 359.582031 90.765625 C 364.28125 83.71875 369.230469 76.882812 374.421875 70.253906" fill="#b76627"/></g><g id="change2_9"><path d="M 406.996094 66.789062 C 403.195312 73.167969 399.757812 79.742188 396.734375 86.441406 C 393.746094 93.125 391.109375 100.054688 389.890625 106.867188 C 389.34375 110.195312 389.164062 113.6875 390.03125 116.035156 C 390.210938 116.640625 390.484375 117.117188 390.769531 117.511719 L 392.15625 119.34375 L 395.558594 123.835938 C 400.0625 129.882812 404.394531 135.925781 408.652344 142.324219 C 410.792969 145.542969 409.921875 149.886719 406.703125 152.027344 C 403.484375 154.164062 399.140625 153.292969 397.003906 150.074219 C 396.804688 149.777344 396.632812 149.46875 396.484375 149.152344 L 396.445312 149.0625 C 393.453125 142.546875 390.128906 135.902344 386.722656 129.429688 L 384.121094 124.574219 C 383.6875 123.761719 383.28125 123.097656 382.617188 121.667969 C 382.058594 120.429688 381.6875 119.132812 381.523438 117.925781 C 380.789062 112.984375 381.953125 108.929688 383.140625 105.125 C 385.765625 97.609375 389.59375 91.074219 393.675781 84.769531 C 397.792969 78.492188 402.242188 72.503906 406.996094 66.789062" fill="#b76627"/></g><g id="change2_10"><path d="M 470.921875 88.910156 C 468.902344 91.398438 467.082031 94.089844 465.960938 96.949219 C 464.835938 99.835938 464.730469 102.773438 465.136719 105.859375 L 465.75 110.625 C 465.933594 112.105469 466.140625 114.257812 465.695312 116.144531 C 464.964844 119.980469 462.890625 123.25 460.3125 125.984375 C 457.699219 128.703125 454.378906 130.839844 450.628906 132.058594 C 446.890625 133.296875 442.738281 133.527344 438.820312 132.8125 C 434.96875 132.078125 431.082031 130.820312 427.515625 127.980469 C 423.945312 125.242188 421.316406 121.003906 420.109375 116.785156 L 419.964844 116.285156 C 418.898438 112.554688 421.058594 108.667969 424.785156 107.601562 C 428.515625 106.535156 432.402344 108.691406 433.46875 112.421875 C 433.589844 112.839844 433.671875 113.300781 433.710938 113.71875 C 433.894531 115.738281 434.441406 117.40625 435.691406 118.921875 C 436.863281 120.464844 439.058594 121.757812 441.355469 122.664062 C 445.84375 124.503906 451.308594 123.914062 455.675781 120.777344 C 457.804688 119.242188 459.734375 117.152344 460.652344 114.765625 C 461.585938 112.6875 461.382812 109.136719 461.652344 105.925781 C 461.792969 102.628906 462.59375 99.027344 464.398438 96.179688 C 466.179688 93.316406 468.488281 91.003906 470.921875 88.910156" fill="#b76627"/></g><g id="change2_11"><path d="M 421.710938 118.285156 C 421.289062 117.867188 420.722656 117.164062 420.332031 116.332031 C 419.929688 115.503906 419.757812 114.699219 419.695312 114.222656 C 419.585938 113.25 419.644531 113.167969 419.636719 113.085938 L 419.6875 113.917969 C 419.679688 108.367188 421.066406 103.660156 422.707031 99.320312 C 424.363281 94.972656 426.507812 91.054688 428.78125 87.300781 C 433.347656 79.816406 438.65625 73.054688 444.378906 66.769531 C 440.570312 74.339844 437.347656 82.183594 435.121094 90.097656 C 434.023438 94.042969 433.121094 98.015625 432.792969 101.851562 C 432.4375 105.65625 432.554688 109.394531 433.453125 112.25 L 433.503906 113.085938 C 433.503906 113.085938 433.554688 113.109375 433.457031 112.234375 C 433.402344 111.804688 433.242188 111.046875 432.863281 110.261719 C 432.492188 109.472656 431.953125 108.808594 431.570312 108.425781 C 434.292969 111.148438 434.292969 115.5625 431.570312 118.285156 C 428.847656 121.007812 424.433594 121.007812 421.710938 118.285156" fill="#b76627"/></g><g id="change2_12"><path d="M 537.164062 90.0625 C 535.65625 97.984375 533.308594 105.8125 530.328125 113.480469 C 528.847656 117.324219 527.171875 121.117188 525.285156 124.847656 C 523.445312 128.609375 521.273438 132.234375 518.992188 135.851562 C 517.148438 138.78125 513.277344 139.660156 510.347656 137.8125 C 507.417969 135.964844 506.539062 132.09375 508.386719 129.164062 C 508.675781 128.710938 509.011719 128.304688 509.386719 127.949219 L 509.496094 127.847656 C 512.253906 125.269531 515.015625 122.597656 517.542969 119.664062 C 520.117188 116.769531 522.566406 113.710938 524.871094 110.519531 C 529.5 104.144531 533.695312 97.320312 537.164062 90.0625" fill="#b76627"/></g><g id="change2_13"><path d="M 744.097656 399.835938 C 751.800781 403.242188 757.921875 409.300781 762.792969 416.015625 C 767.621094 422.816406 771.238281 430.546875 773.324219 438.65625 C 774.207031 442.730469 775.191406 446.824219 775.367188 450.996094 C 775.476562 453.078125 775.652344 455.148438 775.664062 457.222656 C 775.589844 459.296875 775.445312 461.371094 775.277344 463.429688 C 775.082031 467.550781 773.957031 471.597656 773.015625 475.5625 C 771.773438 479.496094 770.242188 483.339844 768.28125 486.980469 C 767.175781 482.851562 766.871094 478.949219 766.183594 475.085938 C 765.359375 471.234375 765.171875 467.464844 764.316406 463.769531 C 763.976562 461.921875 763.660156 460.085938 763.410156 458.253906 C 762.988281 456.441406 762.636719 454.636719 762.265625 452.835938 C 762.070312 451.9375 761.949219 451.03125 761.773438 450.132812 L 761.089844 447.476562 C 760.648438 445.710938 760.351562 443.902344 759.828125 442.160156 C 758.027344 435.105469 755.777344 428.210938 753.199219 421.242188 C 750.597656 414.246094 747.671875 407.304688 744.097656 399.835938" fill="#b76627"/></g><g id="change3_1"><path d="M 61.886719 441.445312 C 67.074219 468.628906 105.300781 484.175781 147.273438 476.167969 C 189.246094 468.160156 219.066406 439.632812 213.882812 412.449219 C 208.695312 385.265625 170.46875 369.722656 128.492188 377.730469 C 86.523438 385.734375 56.703125 414.265625 61.886719 441.445312" fill="#ffb178"/></g><g id="change3_2"><path d="M 410.128906 423.082031 C 408.746094 447.59375 438.304688 469.191406 476.152344 471.328125 C 513.996094 473.464844 545.796875 455.324219 547.179688 430.8125 C 548.5625 406.304688 519.003906 384.703125 481.160156 382.570312 C 443.3125 380.433594 411.511719 398.570312 410.128906 423.082031" fill="#ffb178"/></g><g id="change3_3"><path d="M 634.953125 309.320312 C 635.792969 303.152344 643.765625 301.25 647.355469 306.332031 C 661.15625 325.84375 684.921875 362.691406 684.921875 385.015625 L 684.921875 455.535156 C 684.921875 459.296875 681.871094 462.339844 678.117188 462.339844 C 654.832031 462.339844 638.476562 430.054688 634.820312 407.058594 C 630.902344 382.398438 636.230469 368.214844 634.148438 353.644531 C 631.960938 338.324219 633.320312 321.355469 634.953125 309.320312" fill="#ffb178"/></g></g></svg>