<?xml version="1.0" encoding="UTF-8"?><svg xmlns="http://www.w3.org/2000/svg" xmlns:xlink="http://www.w3.org/1999/xlink" height="186.6" preserveAspectRatio="xMidYMid meet" version="1.1" viewBox="113.6 119.3 198.1 186.6" width="198.1" zoomAndPan="magnify">
 <g id="surface1">
  <g id="change1_1"><path d="m311.64 295.75c0 5.62-4.55 10.17-10.16 10.17h-177.55c-5.62 0-10.17-4.55-10.17-10.17v-144.38c0-5.62 4.55-10.17 10.17-10.17h177.55c5.61 0 10.16 4.55 10.16 10.17v144.38" fill="#aac7d4"/></g>
  <g id="change2_1"><path d="m311.3 285.1c0 5.94-4.82 10.76-10.77 10.76h-176.21c-5.94 0-10.76-4.82-10.76-10.76v-142.15c0-5.95 4.82-10.77 10.76-10.77h176.21c5.95 0 10.77 4.82 10.77 10.77v142.15" fill="#e6ecee"/></g>
  <g id="change3_1"><path d="m311.3 176.89v-33.94c0-5.95-4.82-10.77-10.77-10.77h-176.21c-5.94 0-10.76 4.82-10.76 10.77v33.94h197.74" fill="#ee2945"/></g>
  <g id="change4_1"><path d="m150.15 144.39c0 3.11-2.51 5.62-5.61 5.62s-5.61-2.51-5.61-5.62v-19.5c0-3.09 2.51-5.61 5.61-5.61s5.61 2.52 5.61 5.61v19.5" fill="#9ec1cf"/></g>
  <g id="change4_2"><path d="m184.1 144.39c0 3.11-2.51 5.62-5.62 5.62-3.09 0-5.61-2.51-5.61-5.62v-19.5c0-3.09 2.52-5.61 5.61-5.61 3.11 0 5.62 2.52 5.62 5.61v19.5" fill="#9ec1cf"/></g>
  <g id="change4_3"><path d="m218.04 144.39c0 3.11-2.51 5.62-5.61 5.62s-5.61-2.51-5.61-5.62v-19.5c0-3.09 2.51-5.61 5.61-5.61s5.61 2.52 5.61 5.61v19.5" fill="#9ec1cf"/></g>
  <g id="change4_4"><path d="m251.99 144.39c0 3.11-2.51 5.62-5.61 5.62-3.11 0-5.62-2.51-5.62-5.62v-19.5c0-3.09 2.51-5.61 5.62-5.61 3.1 0 5.61 2.52 5.61 5.61v19.5" fill="#9ec1cf"/></g>
  <g id="change4_5"><path d="m285.93 144.39c0 3.11-2.51 5.62-5.61 5.62s-5.62-2.51-5.62-5.62v-19.5c0-3.09 2.52-5.61 5.62-5.61s5.61 2.52 5.61 5.61v19.5" fill="#9ec1cf"/></g>
  <g id="change5_1"><path d="m149.4 199.49c0 5.02-4.07 9.09-9.1 9.09-5.02 0-9.09-4.07-9.09-9.09 0-5.03 4.07-9.1 9.09-9.1 5.03 0 9.1 4.07 9.1 9.1" fill="#89cce7"/></g>
  <g id="change5_2"><path d="m178.25 199.49c0 5.02-4.07 9.09-9.09 9.09-5.03 0-9.1-4.07-9.1-9.09 0-5.03 4.07-9.1 9.1-9.1 5.02 0 9.09 4.07 9.09 9.1" fill="#89cce7"/></g>
  <g id="change5_3"><path d="m207.1 199.49c0 5.02-4.07 9.09-9.09 9.09-5.03 0-9.1-4.07-9.1-9.09 0-5.03 4.07-9.1 9.1-9.1 5.02 0 9.09 4.07 9.09 9.1" fill="#89cce7"/></g>
  <g id="change5_4"><path d="m235.95 199.49c0 5.02-4.07 9.09-9.09 9.09-5.03 0-9.1-4.07-9.1-9.09 0-5.03 4.07-9.1 9.1-9.1 5.02 0 9.09 4.07 9.09 9.1" fill="#89cce7"/></g>
  <g id="change5_5"><path d="m264.8 199.49c0 5.02-4.07 9.09-9.1 9.09-5.02 0-9.09-4.07-9.09-9.09 0-5.03 4.07-9.1 9.09-9.1 5.03 0 9.1 4.07 9.1 9.1" fill="#89cce7"/></g>
  <g id="change5_6"><path d="m293.65 199.49c0 5.02-4.08 9.09-9.1 9.09s-9.09-4.07-9.09-9.09c0-5.03 4.07-9.1 9.09-9.1s9.1 4.07 9.1 9.1" fill="#89cce7"/></g>
  <g id="change5_7"><path d="m149.4 223.56c0 5.02-4.07 9.09-9.1 9.09-5.02 0-9.09-4.07-9.09-9.09s4.07-9.09 9.09-9.09c5.03 0 9.1 4.07 9.1 9.09" fill="#89cce7"/></g>
  <g id="change5_8"><path d="m178.25 223.56c0 5.02-4.07 9.09-9.09 9.09-5.03 0-9.1-4.07-9.1-9.09s4.07-9.09 9.1-9.09c5.02 0 9.09 4.07 9.09 9.09" fill="#89cce7"/></g>
  <g id="change5_9"><path d="m207.1 223.56c0 5.02-4.07 9.09-9.09 9.09-5.03 0-9.1-4.07-9.1-9.09s4.07-9.09 9.1-9.09c5.02 0 9.09 4.07 9.09 9.09" fill="#89cce7"/></g>
  <g id="change6_1"><path d="m235.95 223.56c0 5.02-4.07 9.09-9.09 9.09-5.03 0-9.1-4.07-9.1-9.09s4.07-9.09 9.1-9.09c5.02 0 9.09 4.07 9.09 9.09" fill="#39b2e2"/></g>
  <g id="change5_10"><path d="m264.8 223.56c0 5.02-4.07 9.09-9.1 9.09-5.02 0-9.09-4.07-9.09-9.09s4.07-9.09 9.09-9.09c5.03 0 9.1 4.07 9.1 9.09" fill="#89cce7"/></g>
  <g id="change5_11"><path d="m293.65 223.56c0 5.02-4.08 9.09-9.1 9.09s-9.09-4.07-9.09-9.09 4.07-9.09 9.09-9.09 9.1 4.07 9.1 9.09" fill="#89cce7"/></g>
  <g id="change5_12"><path d="m149.4 247.63c0 5.03-4.07 9.1-9.1 9.1-5.02 0-9.09-4.07-9.09-9.1 0-5.02 4.07-9.09 9.09-9.09 5.03 0 9.1 4.07 9.1 9.09" fill="#89cce7"/></g>
  <g id="change5_13"><path d="m178.25 247.63c0 5.03-4.07 9.1-9.09 9.1-5.03 0-9.1-4.07-9.1-9.1 0-5.02 4.07-9.09 9.1-9.09 5.02 0 9.09 4.07 9.09 9.09" fill="#89cce7"/></g>
  <g id="change5_14"><path d="m207.1 247.63c0 5.03-4.07 9.1-9.09 9.1-5.03 0-9.1-4.07-9.1-9.1 0-5.02 4.07-9.09 9.1-9.09 5.02 0 9.09 4.07 9.09 9.09" fill="#89cce7"/></g>
  <g id="change5_15"><path d="m235.95 247.63c0 5.03-4.07 9.1-9.09 9.1-5.03 0-9.1-4.07-9.1-9.1 0-5.02 4.07-9.09 9.1-9.09 5.02 0 9.09 4.07 9.09 9.09" fill="#89cce7"/></g>
  <g id="change5_16"><path d="m264.8 247.63c0 5.03-4.07 9.1-9.1 9.1-5.02 0-9.09-4.07-9.09-9.1 0-5.02 4.07-9.09 9.09-9.09 5.03 0 9.1 4.07 9.1 9.09" fill="#89cce7"/></g>
  <g id="change5_17"><path d="m293.65 247.63c0 5.03-4.08 9.1-9.1 9.1s-9.09-4.07-9.09-9.1c0-5.02 4.07-9.09 9.09-9.09s9.1 4.07 9.1 9.09" fill="#89cce7"/></g>
  <g id="change5_18"><path d="m149.4 271.71c0 5.02-4.07 9.09-9.1 9.09-5.02 0-9.09-4.07-9.09-9.09 0-5.03 4.07-9.1 9.09-9.1 5.03 0 9.1 4.07 9.1 9.1" fill="#89cce7"/></g>
  <g id="change5_19"><path d="m178.25 271.71c0 5.02-4.07 9.09-9.09 9.09-5.03 0-9.1-4.07-9.1-9.09 0-5.03 4.07-9.1 9.1-9.1 5.02 0 9.09 4.07 9.09 9.1" fill="#89cce7"/></g>
  <g id="change5_20"><path d="m207.1 271.71c0 5.02-4.07 9.09-9.09 9.09-5.03 0-9.1-4.07-9.1-9.09 0-5.03 4.07-9.1 9.1-9.1 5.02 0 9.09 4.07 9.09 9.1" fill="#89cce7"/></g>
  <g id="change5_21"><path d="m235.95 271.71c0 5.02-4.07 9.09-9.09 9.09-5.03 0-9.1-4.07-9.1-9.09 0-5.03 4.07-9.1 9.1-9.1 5.02 0 9.09 4.07 9.09 9.1" fill="#89cce7"/></g>
  <g id="change5_22"><path d="m264.8 271.71c0 5.02-4.07 9.09-9.1 9.09-5.02 0-9.09-4.07-9.09-9.09 0-5.03 4.07-9.1 9.09-9.1 5.03 0 9.1 4.07 9.1 9.1" fill="#89cce7"/></g>
  <g id="change5_23"><path d="m293.65 271.71c0 5.02-4.08 9.09-9.1 9.09s-9.09-4.07-9.09-9.09c0-5.03 4.07-9.1 9.09-9.1s9.1 4.07 9.1 9.1" fill="#89cce7"/></g>
 </g>
</svg>