<?xml version="1.0" encoding="UTF-8"?><svg xmlns="http://www.w3.org/2000/svg" xmlns:xlink="http://www.w3.org/1999/xlink" height="319.1" preserveAspectRatio="xMidYMid meet" version="1.0" viewBox="9.8 117.1 492.3 319.1" width="492.3" zoomAndPan="magnify"><g id="change1_1"><path d="M185.86,179.62a9.92,9.92,0,0,1-11.08,7.16l-15.36-2.37a33.89,33.89,0,0,1-16.5-7.43l-3.67-3a6.27,6.27,0,0,0-9.2,1.28c-5.38,7.84-8.17,25.7-15.23,39.71-8.13,16.13-20.74,29-24.51,32.67a161.06,161.06,0,0,1,35.14,2.31h0q6.3,1.16,12,2.77a112,112,0,0,1,32.44,14.75V368a173.06,173.06,0,0,1-18.4-1.46c-5.5-.73-10.73-1.71-15.72-2.88-44.82-10.55-70-37.1-88.13-47-13.13-7.13-37.81-22.84-37.81-49.28,0-18.65,8.93-34.23,18.47-53.35C49.35,171.92,92,140.76,119,129.15c16.9-7.28,34-10,47.26-11.42a13.23,13.23,0,0,1,13.43,7.53c2.74,5.82,5.74,11.78,8.68,17.27a20.06,20.06,0,0,1-4.73,24.81l-1.71,1.44A9.92,9.92,0,0,1,185.86,179.62Z" fill="#ff8a93"/></g><g id="change1_2"><path d="M502.17,267.42c0,26.44-24.68,42.15-37.81,49.28-18.17,9.87-43.31,36.42-88.13,47-5,1.17-10.22,2.15-15.72,2.88a173.06,173.06,0,0,1-18.4,1.46V267.43a112,112,0,0,1,32.44-14.75q5.68-1.6,12-2.77h0a161.06,161.06,0,0,1,35.14-2.31c-3.77-3.65-16.38-16.54-24.51-32.67-7.06-14-9.85-31.87-15.23-39.71a6.27,6.27,0,0,0-9.2-1.28l-3.67,3a33.89,33.89,0,0,1-16.5,7.43l-15.36,2.37a9.92,9.92,0,0,1-7.11-18l-1.71-1.44a20.06,20.06,0,0,1-4.73-24.81c2.94-5.49,5.94-11.45,8.68-17.27a13.23,13.23,0,0,1,13.43-7.53c13.25,1.46,30.36,4.14,47.26,11.42,27,11.61,69.61,42.77,90.66,84.92C493.24,233.19,502.17,248.77,502.17,267.42Z" fill="#ff8a93"/></g><g id="change2_1"><path d="M196.31,215.11c21.75,0,41.29,10.13,54.76,26.23a6.34,6.34,0,0,0,9.86,0c13.47-16.1,33-26.23,54.76-26.23,40.63,0,68.31,35.36,68.31,79,0,26.08-13.89,68.3-41.1,93.73-38.74,36.21-71.65,45.53-82.82,47.77a20.65,20.65,0,0,1-8.14,0c-11.18-2.25-44.1-11.57-82.84-47.78-27.21-25.43-41.1-67.65-41.1-93.73C128,250.47,155.68,215.11,196.31,215.11Z" fill="#ff486b"/></g><g id="change3_1"><path d="M181.88,174.79a6,6,0,0,1-2.75-.68l-9.23-4.77a13.07,13.07,0,0,1-4.94-4.41l-3.37-5a6,6,0,0,1,10-6.66l3.36,5.05a1.21,1.21,0,0,0,.43.38l9.28,4.79a6,6,0,0,1-2.77,11.34Z" fill="#ea3b5d"/></g><g id="change3_2"><path d="M69.86,255.44A6,6,0,0,1,69,243.49c7.16-1,14.24-1.63,21-1.89a6,6,0,1,1,.46,12c-6.4.25-13.08.85-19.84,1.79A5.93,5.93,0,0,1,69.86,255.44Z" fill="#ea3b5d"/></g><g id="change3_3"><path d="M330.12,174.79a6,6,0,0,1-2.77-11.34l9.23-4.77a1.21,1.21,0,0,0,.48-.4l3.36-5.05a6,6,0,0,1,10,6.66L347,164.94a13.12,13.12,0,0,1-5,4.42l-9.18,4.75A6,6,0,0,1,330.12,174.79Z" fill="#ea3b5d"/></g><g id="change3_4"><path d="M442.14,255.44a5.93,5.93,0,0,1-.84-.06c-6.76-.94-13.44-1.54-19.84-1.79a6,6,0,1,1,.46-12c6.8.26,13.88.9,21,1.89a6,6,0,0,1-.82,11.95Z" fill="#ea3b5d"/></g></svg>